<?xml version="1.0" encoding="UTF-8" standalone="no"?>
<svg
   viewBox="0 0 2048 512"
   version="1.1"
   id="svg184"
   sodipodi:docname="dark.svg"
   inkscape:version="1.2.1 (9c6d41e, 2022-07-14)"
   inkscape:export-filename="kreata-512-noplane.png"
   inkscape:export-xdpi="96"
   inkscape:export-ydpi="96"
   width="2048"
   height="512"
   xmlns:inkscape="http://www.inkscape.org/namespaces/inkscape"
   xmlns:sodipodi="http://sodipodi.sourceforge.net/DTD/sodipodi-0.dtd"
   xmlns:xlink="http://www.w3.org/1999/xlink"
   xmlns="http://www.w3.org/2000/svg"
   xmlns:svg="http://www.w3.org/2000/svg">
  <defs
     id="defs188">
    <linearGradient
       inkscape:collect="always"
       id="linearGradient1102">
      <stop
         style="stop-color:#ddff71;stop-opacity:1;"
         offset="0"
         id="stop1098" />
      <stop
         style="stop-color:#3798bd;stop-opacity:1;"
         offset="1"
         id="stop1100" />
    </linearGradient>
    <radialGradient
       inkscape:collect="always"
       xlink:href="#linearGradient1102"
       id="radialGradient2183"
       cx="256"
       cy="256"
       fx="256"
       fy="256"
       r="123.66102"
       gradientTransform="matrix(1.9649123,0,0,1.9649123,-247.01754,-247.01756)"
       gradientUnits="userSpaceOnUse" />
  </defs>
  <sodipodi:namedview
     id="namedview186"
     pagecolor="#ffffff"
     bordercolor="#000000"
     borderopacity="0.25"
     inkscape:showpageshadow="2"
     inkscape:pageopacity="0.0"
     inkscape:pagecheckerboard="0"
     inkscape:deskcolor="#d1d1d1"
     showgrid="false"
     inkscape:zoom="0.27442425"
     inkscape:cx="1277.2195"
     inkscape:cy="368.04328"
     inkscape:window-width="1440"
     inkscape:window-height="456"
     inkscape:window-x="0"
     inkscape:window-y="25"
     inkscape:window-maximized="0"
     inkscape:current-layer="svg184" />
  <path
     id="path2167"
     style="fill:url(#radialGradient2183);fill-opacity:1;stroke-width:7.85965"
     d="M 498.98305,256 A 242.98305,242.98305 0 0 1 256,498.98305 242.98305,242.98305 0 0 1 13.016961,256 242.98305,242.98305 0 0 1 256,13.016946 242.98305,242.98305 0 0 1 498.98305,256 Z" />
  <path
     id="path1418"
     style="fill:#000000;stroke-width:2.94737"
     d="M 347.11865,256 A 91.118646,91.118646 0 0 1 256,347.11865 91.118646,91.118646 0 0 1 164.88136,256 91.118646,91.118646 0 0 1 256,164.88135 91.118646,91.118646 0 0 1 347.11865,256 Z" />
  <g
     aria-label="Kapsula"
     id="text4441"
     style="font-weight:800;font-size:258.883px;font-family:'Apple SD Gothic Neo';-inkscape-font-specification:'Apple SD Gothic Neo, Ultra-Bold';fill:#ececec;stroke-width:4"
     transform="matrix(1.3624321,0,0,1.3624321,-205.89229,-88.78261)">
    <path
       d="m 706.28681,331.59384 h 41.93904 c -21.74617,-31.32485 -43.75123,-62.39081 -66.01516,-93.45677 l 62.3908,-84.13697 c -12.68527,0 -25.11165,-0.25888 -38.0558,-0.25888 -20.96952,29.25378 -42.7157,58.50755 -63.9441,88.02022 21.2284,29.51266 42.71569,60.06085 63.68522,89.8324 z m -101.48214,0 h 36.5025 V 154.0001 h -36.5025 z"
       id="path5209"
       style="fill:#ececec" />
    <path
       d="m 800.77902,333.92378 c 16.82739,0 28.21825,-5.43654 34.17255,-13.20303 h 1.5533 l 2.58883,10.87309 h 27.70048 v -96.0456 c 0,-28.99489 -18.38069,-40.38574 -49.96442,-40.38574 -18.63957,0 -33.65478,2.58883 -46.85782,7.24872 v 23.81724 c 8.80202,-2.58883 20.71064,-4.14213 33.91368,-4.14213 22.00505,0 29.25377,3.88324 29.25377,20.45176 v 9.0609 l -29.51266,3.62436 c -27.18271,3.88325 -44.78676,15.2741 -44.78676,40.64463 0,25.8883 17.34516,38.0558 41.93905,38.0558 z m 10.6142,-23.04058 c -11.13197,0 -19.15734,-5.17766 -19.15734,-17.60405 0,-12.42638 6.21319,-17.08628 18.89846,-18.38069 l 22.00505,-2.32995 v 31.06596 c -4.14212,4.14213 -13.20303,7.24873 -21.74617,7.24873 z"
       id="path5211"
       style="fill:#ececec" />
    <path
       d="m 896.30657,369.64964 h 33.91367 v -42.7157 c 5.69542,3.36548 15.79186,6.98984 30.03042,6.98984 36.50251,0 60.83754,-19.41622 60.83754,-70.67506 v -2.84771 c 0,-49.44665 -24.8528,-65.4974 -52.2944,-65.4974 -17.08627,0 -30.28931,5.69543 -38.57356,14.23857 h -1.29442 v -11.64974 h -32.61925 z m 58.76644,-60.57863 c -10.87309,0 -20.19288,-3.36547 -24.85277,-6.73095 v -73.00501 c 4.91877,-3.36548 13.97968,-6.98984 26.14718,-6.98984 18.89846,0 29.77154,8.28426 29.77154,40.38575 v 4.91878 c 0,31.58372 -11.64973,41.42127 -31.06595,41.42127 z"
       id="path5213"
       style="fill:#ececec" />
    <path
       d="m 1082.7023,333.92378 c 34.6903,0 53.3299,-14.49745 53.3299,-42.71569 0,-23.29947 -10.0964,-34.69032 -36.5025,-40.12687 l -12.6853,-2.58883 c -12.4264,-2.32994 -17.3451,-5.43654 -17.3451,-14.23856 0,-9.31979 7.5076,-13.97968 22.7817,-13.97968 15.533,0 27.9593,3.62436 36.2436,6.47207 v -24.335 c -9.3198,-4.14213 -21.2284,-7.24872 -39.6091,-7.24872 -34.6903,0 -51.2588,16.30963 -51.2588,41.42128 0,24.85276 13.4619,35.20808 34.4314,39.35021 l 12.4264,2.84771 c 13.7208,2.58883 18.6396,6.47208 18.6396,15.2741 0,9.31979 -7.2488,14.49745 -25.3706,14.49745 -18.6396,0 -29.2538,-3.88325 -39.6091,-8.28426 v 24.335 c 10.3553,5.69543 26.9239,9.31979 44.5279,9.31979 z"
       id="path5215"
       style="fill:#ececec" />
    <path
       d="m 1198.6819,333.92378 c 16.8274,0 29.7715,-5.69542 40.9035,-14.23856 h 1.2944 l 3.1066,11.90862 h 29.2538 v -134.1014 h -33.9137 v 101.9999 c -7.5076,3.88325 -16.5685,7.76649 -26.9238,7.76649 -15.533,0 -20.4518,-5.43654 -20.4518,-19.15734 v -90.60905 h -33.9136 v 97.59889 c 0,26.40607 15.0152,38.83245 40.6446,38.83245 z"
       id="path5217"
       style="fill:#ececec" />
    <path
       d="m 1304.3057,331.59384 h 34.1725 V 142.35037 h -34.1725 z"
       id="path5219"
       style="fill:#ececec" />
    <path
       d="m 1403.4574,333.92378 c 16.8274,0 28.2182,-5.43654 34.1725,-13.20303 h 1.5533 l 2.5889,10.87309 h 27.7005 v -96.0456 c 0,-28.99489 -18.3807,-40.38574 -49.9645,-40.38574 -18.6395,0 -33.6547,2.58883 -46.8578,7.24872 v 23.81724 c 8.802,-2.58883 20.7107,-4.14213 33.9137,-4.14213 22.005,0 29.2538,3.88324 29.2538,20.45176 v 9.0609 l -29.5127,3.62436 c -27.1827,3.88325 -44.7868,15.2741 -44.7868,40.64463 0,25.8883 17.3452,38.0558 41.9391,38.0558 z m 10.6142,-23.04058 c -11.132,0 -19.1573,-5.17766 -19.1573,-17.60405 0,-12.42638 6.2131,-17.08628 18.8984,-18.38069 l 22.0051,-2.32995 v 31.06596 c -4.1422,4.14213 -13.2031,7.24873 -21.7462,7.24873 z"
       id="path5221"
       style="fill:#ececec" />
  </g>
</svg>
